<svg width="36" height="31" viewBox="0 0 36 31" fill="none" xmlns="http://www.w3.org/2000/svg">
<path d="M0.608451 13.6479C1.5729 9.7715 3.80655 6.32912 6.95371 3.86906C10.1009 1.40895 13.9807 0.0724945 17.9753 0.0724945C21.9698 0.0724945 25.8496 1.40895 28.9968 3.86906C32.144 6.32912 34.3776 9.7715 35.3421 13.6479H33.7734C31.1271 13.6089 28.5351 14.3998 26.3613 15.9094C26.2358 16.0003 26.1048 16.0833 25.9691 16.1578H25.7861C25.6504 16.0833 25.5194 16.0003 25.3939 15.9094C23.2009 14.4347 20.618 13.6471 17.9753 13.6471C15.3325 13.6471 12.7497 14.4347 10.5566 15.9094C10.4311 16.0003 10.3001 16.0833 10.1644 16.1578H9.98143C9.84574 16.0833 9.71475 16.0003 9.58925 15.9094C7.41543 14.3998 4.82342 13.6089 2.17715 13.6479H0.608451ZM30.9497 21.8443C31.755 21.2173 32.7531 20.8891 33.7734 20.9162H35.878V16.7199H33.7734C31.9762 16.6982 30.2201 17.2576 28.7666 18.3148C27.9487 18.9178 26.9592 19.2432 25.9429 19.2432C24.9267 19.2432 23.9372 18.9178 23.1193 18.3148C21.6289 17.2773 19.8565 16.7211 18.0406 16.7211C16.2247 16.7211 14.4524 17.2773 12.962 18.3148C12.144 18.9178 11.1546 19.2432 10.1383 19.2432C9.12204 19.2432 8.13259 18.9178 7.31464 18.3148C5.8432 17.244 4.06194 16.684 2.24251 16.7199H0.0724792V20.9162H2.17715C3.19747 20.8891 4.19554 21.2173 5.00081 21.8443C6.48846 22.8826 8.25887 23.4392 10.0729 23.4392C11.887 23.4392 13.6574 22.8826 15.1451 21.8443C15.9514 21.2192 16.9487 20.8914 17.9687 20.9162C18.9894 20.8869 19.9882 21.2153 20.7924 21.8443C22.2828 22.8819 24.0551 23.438 25.871 23.438C27.6869 23.438 29.4593 22.8819 30.9497 21.8443ZM30.9497 29.3479C31.755 28.7209 32.7531 28.3927 33.7734 28.4198H35.878V24.2235H33.7734C31.9762 24.2018 30.2201 24.7612 28.7666 25.8184C27.9487 26.4214 26.9592 26.7468 25.9429 26.7468C24.9267 26.7468 23.9372 26.4214 23.1193 25.8184C21.6289 24.7809 19.8565 24.2248 18.0406 24.2248C16.2247 24.2248 14.4524 24.7809 12.962 25.8184C12.144 26.4214 11.1546 26.7468 10.1383 26.7468C9.12204 26.7468 8.13259 26.4214 7.31464 25.8184C5.8432 24.7477 4.06194 24.1876 2.24251 24.2235H0.0724792V28.4198H2.17715C3.19747 28.3927 4.19554 28.7209 5.00081 29.3479C6.48846 30.3862 8.25887 30.9428 10.0729 30.9428C11.887 30.9428 13.6574 30.3862 15.1451 29.3479C15.9514 28.7228 16.9487 28.395 17.9687 28.4198C18.9894 28.3905 19.9882 28.7189 20.7924 29.3479C22.2828 30.3855 24.0551 30.9416 25.871 30.9416C27.6869 30.9416 29.4593 30.3855 30.9497 29.3479Z" fill="url(#paint0_linear_1_23)"/>
<defs>
<linearGradient id="paint0_linear_1_23" x1="17.9753" y1="0.0724945" x2="17.9753" y2="30.9428" gradientUnits="userSpaceOnUse">
<stop stop-color="#61B0FF"/>
<stop offset="1" stop-color="#1D5791"/>
</linearGradient>
</defs>
</svg>
